<svg width="511.85999999999996" height="491.43" xmlns="http://www.w3.org/2000/svg">
 <defs>
  <linearGradient x1="0.987813" y1="0.999886" x2="0.784312" y2="0.586937" id="linearGradient11197">
   <stop stop-color="#803300" offset="0" id="stop10761"/>
   <stop stop-color="#aa4400" stop-opacity="0" offset="1" id="stop10763"/>
  </linearGradient>
  <linearGradient x1="0.232339" y1="0.038288" x2="0.944592" y2="0.394979" id="linearGradient11195">
   <stop stop-color="#ff0000" offset="0" id="stop10740"/>
   <stop stop-color="#ff0000" stop-opacity="0" offset="1" id="stop10742"/>
  </linearGradient>
  <linearGradient x1="0.975675" y1="0.999961" x2="0.461424" y2="0.499828" id="linearGradient11193">
   <stop stop-color="#2b1100" offset="0" id="stop10771"/>
   <stop stop-color="#2b1100" stop-opacity="0" offset="1" id="stop10773"/>
  </linearGradient>
  <linearGradient x1="0.225103" y1="0.068391" x2="0.518961" y2="0.499796" id="linearGradient11191">
   <stop stop-color="#ff0000" offset="0" id="stop10751"/>
   <stop stop-color="#ff0000" stop-opacity="0" offset="1" id="stop10753"/>
  </linearGradient>
  <radialGradient r="28.705" gradientTransform="matrix(-18.641 -27.657 1.9096 -1.2871 -3.6682e5 -5.4326e5)" cx="-19672" cy="120.5" gradientUnits="userSpaceOnUse" id="radialGradient11189">
   <stop stop-color="#ffefb5" offset="0" id="stop10712"/>
   <stop stop-color="#ffefb5" stop-opacity="0" offset="1" id="stop10714"/>
  </radialGradient>
  <radialGradient r="53.22" gradientTransform="matrix(-4.8085 -4.0411 1.3289 -1.5812 -94191 -78574)" cx="-19639" cy="77.422" gradientUnits="userSpaceOnUse" id="radialGradient11187">
   <stop stop-color="#734e21" offset="0" id="stop10725"/>
   <stop stop-color="#734e21" stop-opacity="0" offset="1" id="stop10727"/>
  </radialGradient>
 </defs>
 <metadata>image/svg+xmlOpenclipartRegistry book2010-08-01T08:48:40https://openclipart.org/detail/75799/registry-book-by-wakrowakrobookregistry bookwedding</metadata>
 <g>
  <title>background</title>
  <rect fill="none" id="canvas_background" height="402" width="582" y="-1" x="-1"/>
 </g>
 <g>
  <title>Layer 1</title>
  <g id="layer1">
   <path fill="#513622" d="m476.034001,278.9c22.998,2.1239 6.7024,9.8616 4.2056,15.627c-69.742,40.345 -177.7,89.914 -268.07,135.24c-13.222,1.7999 -23.242,-2.8018 -30.055,-13.824l-169.8,-298.44c-7.8065,-22.374 -24.252,-44.171 2.1028,-68.821c70.641,-16.375 79.729,-34.443 227.8,-48.687c87.553,60.609 178.3,135.04 268.07,205.26c3.9837,8.8751 0.11096,11.85 -8.7109,11.119c-12.19,17.728 -23.597,36.118 -25.544,62.511l0.0015,0.015z" id="path11099"/>
   <path opacity="0.63478" fill="url(#radialGradient11187)" d="m476.034001,278.9c22.998,2.1239 6.7024,9.8616 4.2056,15.627c-69.742,40.345 -177.7,89.914 -268.07,135.24c-13.222,1.7999 -23.242,-2.8018 -30.055,-13.824l-169.8,-298.44c-7.8065,-22.374 -24.252,-44.171 2.1028,-68.821c70.641,-16.375 79.729,-34.443 227.8,-48.687c87.553,60.609 178.3,135.04 268.07,205.26c3.9837,8.8751 0.11096,11.85 -8.7109,11.119c-12.19,17.728 -23.597,36.118 -25.544,62.511l0.0015,0.015z" id="path11101"/>
   <path fill="#634218" d="m479.644001,287.31l-274.09,133.44c-13.383,-1.2483 -15.219,-47.912 23.442,-64.915l272.89,-139.45c-25.256,43.464 -25.434,59.072 -22.238,70.925l-0.004,0z" id="path11103"/>
   <path fill="#bd8431" d="m272.274001,329.39l-45.679,27.048c-15.041,7.6783 -24.396,15.831 -25.844,24.643c-0.56592,9.7451 -0.85998,18.948 -3.6064,33.059c6.5137,6.0809 14.132,3.38 21.749,0.60477l52.493,-26.776l4.6717,9.775l-63.112,31.664c-14.709,5.14 -21.422,-0.72292 -27.198,-7.863l-171.83,-298.63c-26.588,-50.729 -8.4945,-65.067 0.38838,-74.231l31.98,-10.82l226.01,291.52l-0.02268,0.00623z" id="path11105"/>
   <path fill="url(#radialGradient11189)" d="m272.274001,329.39l-45.679,27.048c-15.041,7.6783 -24.396,15.831 -25.844,24.643c-0.56592,9.7451 -0.85998,18.948 -3.6064,33.059c6.5137,6.0809 14.132,3.38 21.749,0.60477l52.493,-26.776l4.6717,9.775l-63.112,31.664c-14.709,5.14 -21.422,-0.72292 -27.198,-7.863l-171.83,-298.63c-26.588,-50.729 -8.4945,-65.067 0.38838,-74.231l31.98,-10.82l226.01,291.52l-0.02268,0.00623z" id="path11107"/>
   <path fill="#c63900" d="m247.794001,368.84c21.749,23.342 12.711,44.027 40.375,82.241c0,0 6.8078,-8.9256 9.3545,-8.9256s15.724,0.84996 15.724,0.84996c-37.473,-48.052 -9.0826,-44.574 -48.026,-82.877l-17.427,8.7125l-0.0005,-0.00086z" id="path11109"/>
   <path opacity="0.54783" fill="url(#linearGradient11191)" d="m247.794001,368.84c21.749,23.342 12.711,44.027 40.375,82.241c0,0 6.8078,-8.9256 9.3545,-8.9256s15.724,0.84996 15.724,0.84996c-37.473,-48.052 -9.0826,-44.574 -48.026,-82.877l-17.427,8.7125l-0.0005,-0.00086z" id="path11111"/>
   <path opacity="0.54783" fill="url(#linearGradient11193)" d="m247.794001,368.84c21.749,23.342 12.711,44.027 40.375,82.241c0,0 6.8078,-8.9256 9.3545,-8.9256s15.724,0.84996 15.724,0.84996c-37.473,-48.052 -9.0826,-44.574 -48.026,-82.877l-17.427,8.7125l-0.0005,-0.00086z" id="path11113"/>
   <path fill="#d45500" d="m231.314001,377.06c37.473,28.442 8.9661,68.309 32.574,108.03c0,0 2.2082,-7.9552 4.7549,-7.9552s6.9964,14.3 6.9964,14.3c4.0114,-24.375 9.643,-105.67 -26.898,-123.08l-17.427,8.7131l-0.0003,-0.0079z" id="path11115"/>
   <path opacity="0.66522" fill="url(#linearGradient11195)" d="m231.314001,377.06c37.473,28.442 8.9661,68.309 32.574,108.03c0,0 2.2082,-7.9552 4.7549,-7.9552s6.9964,14.3 6.9964,14.3c4.0114,-24.375 9.643,-105.67 -26.898,-123.08l-17.427,8.7131l-0.0003,-0.0079z" id="path11117"/>
   <path opacity="0.66522" fill="url(#linearGradient11197)" d="m231.314001,377.06c37.473,28.442 8.9661,68.309 32.574,108.03c0,0 2.2082,-7.9552 4.7549,-7.9552s6.9964,14.3 6.9964,14.3c4.0114,-24.375 9.643,-105.67 -26.898,-123.08l-17.427,8.7131l-0.0003,-0.0079z" id="path11119"/>
  </g>
  <text font-weight="normal" stroke="#000" transform="rotate(57.04526901245117 115.2493743896485,221.98536682128903) matrix(2.688207852913953,0,0,1.417842511816325,-210.87710067255193,-83.2213757514065) " xml:space="preserve" text-anchor="start" font-family="'Trebuchet MS', Gadget, sans-serif" font-size="24" id="svg_9" y="223.87572" x="65.881945" fill-opacity="null" stroke-opacity="null" stroke-width="0" fill="#ffffff">optkt.com</text>
 </g>
</svg>